<?xml version="1.0" encoding="UTF-8" standalone="no"?>
<svg
   width="32"
   height="32"
   fill="currentColor"
   class="bi bi-gear"
   viewBox="0 0 32 32"
   version="1.1"
   id="svg2"
   sodipodi:docname="cogwheel.svg"
   inkscape:version="1.4.2 (ebf0e940d0, 2025-05-08)"
   xmlns:inkscape="http://www.inkscape.org/namespaces/inkscape"
   xmlns:sodipodi="http://sodipodi.sourceforge.net/DTD/sodipodi-0.dtd"
   xmlns="http://www.w3.org/2000/svg"
   xmlns:svg="http://www.w3.org/2000/svg">
  <defs
     id="defs2" />
  <sodipodi:namedview
     id="namedview2"
     pagecolor="#ffffff"
     bordercolor="#999999"
     borderopacity="1"
     inkscape:showpageshadow="2"
     inkscape:pageopacity="0"
     inkscape:pagecheckerboard="0"
     inkscape:deskcolor="#d1d1d1"
     inkscape:zoom="19.379145"
     inkscape:cx="12.565054"
     inkscape:cy="13.493887"
     inkscape:window-width="2048"
     inkscape:window-height="1086"
     inkscape:window-x="0"
     inkscape:window-y="0"
     inkscape:window-maximized="1"
     inkscape:current-layer="svg2" />
  <path
     d="m 16.001709,11.130696 a 4.8693043,4.8693043 0 1 0 0,9.738608 4.8693043,4.8693043 0 0 0 0,-9.738608 M 12.632498,16 a 3.369211,3.369211 0 1 1 6.738422,0 3.369211,3.369211 0 0 1 -6.738422,0"
     id="path1"
     style="fill:#6B6B6E;fill-opacity:1;stroke-width:1.50009" />
  <path
     d="m 18.694168,6.013876 c -0.790549,-2.685168 -4.597787,-2.685168 -5.388336,0 l -0.141009,0.47853 A 1.3095818,1.3095818 0 0 1 11.282205,7.272455 L 10.844178,7.03244 C 8.384024,5.6943559 5.6943559,8.385524 7.03394,10.844178 l 0.238515,0.438027 a 1.3095818,1.3095818 0 0 1 -0.780049,1.882618 l -0.47853,0.141009 c -2.685168,0.790549 -2.685168,4.597787 0,5.388336 l 0.47853,0.141009 a 1.3095818,1.3095818 0 0 1 0.780049,1.882618 L 7.03244,21.155822 c -1.3380841,2.460154 1.351584,5.151322 3.811738,3.810238 l 0.438027,-0.238515 a 1.3095818,1.3095818 0 0 1 1.882618,0.780049 l 0.141009,0.47853 c 0.790549,2.685168 4.597787,2.685168 5.388336,0 l 0.141009,-0.47853 a 1.3095818,1.3095818 0 0 1 1.882618,-0.780049 l 0.438027,0.240015 c 2.460154,1.339584 5.151322,-1.353084 3.810238,-3.811738 l -0.238515,-0.438027 a 1.3095818,1.3095818 0 0 1 0.780049,-1.882618 l 0.47853,-0.141009 c 2.685168,-0.790549 2.685168,-4.597787 0,-5.388336 l -0.47853,-0.141009 A 1.3095818,1.3095818 0 0 1 24.727545,11.282205 L 24.96756,10.844178 C 26.307144,8.384024 23.614476,5.6943559 21.155822,7.03394 L 20.717795,7.272455 A 1.3095818,1.3095818 0 0 1 18.835177,6.492406 Z m -3.949746,0.424526 c 0.369023,-1.2525779 2.142133,-1.2525779 2.511156,0 l 0.141009,0.47853 a 2.8096756,2.8096756 0 0 0 4.039753,1.672605 l 0.436527,-0.240015 c 1.146072,-0.622539 2.40015,0.630039 1.776111,1.777611 l -0.238515,0.438027 a 2.8096756,2.8096756 0 0 0 1.674105,4.038253 l 0.47703,0.141009 c 1.252578,0.369023 1.252578,2.142133 0,2.511156 l -0.47853,0.141009 a 2.8096756,2.8096756 0 0 0 -1.672605,4.039753 l 0.240015,0.436527 c 0.622539,1.146072 -0.630039,2.40015 -1.777611,1.776111 L 21.43634,23.410463 a 2.8096756,2.8096756 0 0 0 -4.039753,1.674105 l -0.141009,0.47703 c -0.369023,1.252578 -2.142133,1.252578 -2.511156,0 l -0.141009,-0.47853 A 2.8096756,2.8096756 0 0 0 10.56516,23.410463 l -0.438027,0.240015 C 8.981061,24.273017 7.726983,23.020439 8.351022,21.872867 L 8.589537,21.43634 A 2.8096756,2.8096756 0 0 0 6.916932,17.395087 l -0.47853,-0.141009 c -1.2525779,-0.369023 -1.2525779,-2.142134 0,-2.511157 l 0.47853,-0.141008 A 2.8096756,2.8096756 0 0 0 8.589537,10.56516 L 8.349522,10.127133 C 7.726983,8.981061 8.979561,7.726983 10.127133,8.351022 l 0.438027,0.238515 a 2.8096756,2.8096756 0 0 0 4.038253,-1.672605 z"
     id="path2"
     style="fill:#6B6B6E;fill-opacity:1;stroke-width:1.50009" />
</svg>
