<?xml version="1.0" encoding="UTF-8" standalone="no"?>
<svg
   width="32"
   height="32"
   fill="currentColor"
   class="bi bi-speaker"
   viewBox="0 0 32 32"
   version="1.1"
   id="svg2"
   sodipodi:docname="enclosure.svg"
   inkscape:version="1.4.2 (ebf0e940d0, 2025-05-08)"
   xmlns:inkscape="http://www.inkscape.org/namespaces/inkscape"
   xmlns:sodipodi="http://sodipodi.sourceforge.net/DTD/sodipodi-0.dtd"
   xmlns="http://www.w3.org/2000/svg"
   xmlns:svg="http://www.w3.org/2000/svg">
  <defs
     id="defs2" />
  <sodipodi:namedview
     id="namedview2"
     pagecolor="#ffffff"
     bordercolor="#999999"
     borderopacity="1"
     inkscape:showpageshadow="2"
     inkscape:pageopacity="0"
     inkscape:pagecheckerboard="0"
     inkscape:deskcolor="#d1d1d1"
     inkscape:zoom="19.379145"
     inkscape:cx="15.041943"
     inkscape:cy="13.958304"
     inkscape:window-width="2048"
     inkscape:window-height="1086"
     inkscape:window-x="0"
     inkscape:window-y="0"
     inkscape:window-maximized="1"
     inkscape:current-layer="svg2" />
  <g
     id="g2"
     style="fill:#6b6b6b;fill-opacity:1"
     transform="matrix(1.5,0,0,1.5,4,4)">
    <path
       d="m 12,1 a 1,1 0 0 1 1,1 v 12 a 1,1 0 0 1 -1,1 H 4 A 1,1 0 0 1 3,14 V 2 A 1,1 0 0 1 4,1 Z M 4,0 A 2,2 0 0 0 2,2 v 12 a 2,2 0 0 0 2,2 h 8 a 2,2 0 0 0 2,-2 V 2 A 2,2 0 0 0 12,0 Z"
       id="path1"
       style="fill:#6b6b6b;fill-opacity:1" />
    <path
       d="m 8,4.75 a 0.75,0.75 0 1 1 0,-1.5 0.75,0.75 0 0 1 0,1.5 M 8,6 A 2,2 0 1 0 8,2 2,2 0 0 0 8,6 m 0,3 a 1.5,1.5 0 1 0 0,3 1.5,1.5 0 0 0 0,-3 m -3.5,1.5 a 3.5,3.5 0 1 1 7,0 3.5,3.5 0 0 1 -7,0"
       id="path2"
       style="fill:#6b6b6b;fill-opacity:1" />
  </g>
</svg>
