<?xml version="1.0" encoding="UTF-8" standalone="no"?>
<svg
   width="32"
   height="32"
   fill="currentColor"
   class="bi bi-speaker-fill"
   viewBox="0 0 32 32"
   version="1.1"
   id="svg2"
   sodipodi:docname="enclosure-fill.svg"
   inkscape:version="1.4.2 (ebf0e940d0, 2025-05-08)"
   xmlns:inkscape="http://www.inkscape.org/namespaces/inkscape"
   xmlns:sodipodi="http://sodipodi.sourceforge.net/DTD/sodipodi-0.dtd"
   xmlns="http://www.w3.org/2000/svg"
   xmlns:svg="http://www.w3.org/2000/svg">
  <defs
     id="defs2" />
  <sodipodi:namedview
     id="namedview2"
     pagecolor="#ffffff"
     bordercolor="#999999"
     borderopacity="1"
     inkscape:showpageshadow="2"
     inkscape:pageopacity="0"
     inkscape:pagecheckerboard="0"
     inkscape:deskcolor="#d1d1d1"
     inkscape:zoom="13.703125"
     inkscape:cx="0.25541619"
     inkscape:cy="16.820981"
     inkscape:window-width="2048"
     inkscape:window-height="1086"
     inkscape:window-x="0"
     inkscape:window-y="0"
     inkscape:window-maximized="1"
     inkscape:current-layer="svg2" />
  <g
     id="g2"
     transform="matrix(1.5,0,0,1.5,4,4)"
     style="fill:#6b6b6b;fill-opacity:1">
    <path
       d="M 9,4 A 1,1 0 1 1 7,4 1,1 0 0 1 9,4 m -2.5,6.5 a 1.5,1.5 0 1 1 3,0 1.5,1.5 0 0 1 -3,0"
       id="path1"
       style="fill:#6b6b6b;fill-opacity:1" />
    <path
       d="M 4,0 A 2,2 0 0 0 2,2 v 12 a 2,2 0 0 0 2,2 h 8 a 2,2 0 0 0 2,-2 V 2 A 2,2 0 0 0 12,0 Z m 6,4 A 2,2 0 1 1 6,4 2,2 0 0 1 10,4 M 8,7 a 3.5,3.5 0 1 1 0,7 3.5,3.5 0 0 1 0,-7"
       id="path2"
       style="fill:#6b6b6b;fill-opacity:1" />
  </g>
</svg>
