<?xml version="1.0" encoding="UTF-8" standalone="no"?>
<svg
   width="32"
   height="32"
   fill="currentColor"
   class="bi bi-sliders2-vertical"
   viewBox="0 0 32 32"
   version="1.1"
   id="svg1"
   sodipodi:docname="sliders2-vertical.svg"
   inkscape:version="1.4.2 (ebf0e940d0, 2025-05-08)"
   xmlns:inkscape="http://www.inkscape.org/namespaces/inkscape"
   xmlns:sodipodi="http://sodipodi.sourceforge.net/DTD/sodipodi-0.dtd"
   xmlns="http://www.w3.org/2000/svg"
   xmlns:svg="http://www.w3.org/2000/svg">
  <defs
     id="defs1" />
  <sodipodi:namedview
     id="namedview1"
     pagecolor="#ffffff"
     bordercolor="#999999"
     borderopacity="1"
     inkscape:showpageshadow="2"
     inkscape:pageopacity="0"
     inkscape:pagecheckerboard="0"
     inkscape:deskcolor="#d1d1d1"
     inkscape:zoom="19.379145"
     inkscape:cx="12.255442"
     inkscape:cy="13.28748"
     inkscape:window-width="2048"
     inkscape:window-height="1086"
     inkscape:window-x="0"
     inkscape:window-y="0"
     inkscape:window-maximized="1"
     inkscape:current-layer="svg1" />
  <g
     id="g1"
     style="fill:#6B6B6E;fill-opacity:1"
     transform="matrix(1.5,0,0,1.5,4,4)">
    <path
       fill-rule="evenodd"
       d="M 0,10.5 A 0.5,0.5 0 0 0 0.5,11 h 4 a 0.5,0.5 0 0 0 0,-1 H 3 V 1.5 a 0.5,0.5 0 0 0 -1,0 V 10 H 0.5 A 0.5,0.5 0 0 0 0,10.5 M 2.5,12 A 0.5,0.5 0 0 0 2,12.5 v 2 a 0.5,0.5 0 0 0 1,0 v -2 A 0.5,0.5 0 0 0 2.5,12 m 3,-6.5 A 0.5,0.5 0 0 0 6,6 h 1.5 v 8.5 a 0.5,0.5 0 0 0 1,0 V 6 H 10 A 0.5,0.5 0 0 0 10,5 H 6 A 0.5,0.5 0 0 0 5.5,5.5 M 8,1 A 0.5,0.5 0 0 0 7.5,1.5 v 2 a 0.5,0.5 0 0 0 1,0 v -2 A 0.5,0.5 0 0 0 8,1 m 3,9.5 a 0.5,0.5 0 0 0 0.5,0.5 h 4 a 0.5,0.5 0 0 0 0,-1 H 14 V 1.5 a 0.5,0.5 0 0 0 -1,0 V 10 H 11.5 A 0.5,0.5 0 0 0 11,10.5 M 13.5,12 A 0.5,0.5 0 0 0 13,12.5 v 2 a 0.5,0.5 0 0 0 1,0 v -2 A 0.5,0.5 0 0 0 13.5,12"
       id="path1"
       style="fill:#6B6B6E;fill-opacity:1" />
  </g>
</svg>
