<?xml version="1.0" encoding="UTF-8" standalone="no"?>
<svg
   width="32"
   height="32"
   fill="currentColor"
   class="bi bi-question-circle"
   viewBox="0 0 32 32"
   version="1.1"
   id="svg2"
   sodipodi:docname="help.svg"
   inkscape:version="1.4.2 (ebf0e940d0, 2025-05-08)"
   xmlns:inkscape="http://www.inkscape.org/namespaces/inkscape"
   xmlns:sodipodi="http://sodipodi.sourceforge.net/DTD/sodipodi-0.dtd"
   xmlns="http://www.w3.org/2000/svg"
   xmlns:svg="http://www.w3.org/2000/svg">
  <defs
     id="defs2" />
  <sodipodi:namedview
     id="namedview2"
     pagecolor="#ffffff"
     bordercolor="#999999"
     borderopacity="1"
     inkscape:showpageshadow="2"
     inkscape:pageopacity="0"
     inkscape:pagecheckerboard="0"
     inkscape:deskcolor="#d1d1d1"
     inkscape:zoom="19.379145"
     inkscape:cx="4.6183667"
     inkscape:cy="10.294572"
     inkscape:window-width="2048"
     inkscape:window-height="1086"
     inkscape:window-x="0"
     inkscape:window-y="0"
     inkscape:window-maximized="1"
     inkscape:current-layer="svg2" />
  <g
     id="g1"
     transform="matrix(1.5,0,0,1.5,4,4)">
    <path
       d="M 8,15 A 7,7 0 1 1 8,1 7,7 0 0 1 8,15 m 0,1 A 8,8 0 1 0 8,0 8,8 0 0 0 8,16"
       id="path1"
       style="fill:#6b6b6b;fill-opacity:1" />
    <path
       d="m 5.255,5.786 a 0.237,0.237 0 0 0 0.241,0.247 h 0.825 c 0.138,0 0.248,-0.113 0.266,-0.25 0.09,-0.656 0.54,-1.134 1.342,-1.134 0.686,0 1.314,0.343 1.314,1.168 0,0.635 -0.374,0.927 -0.965,1.371 C 7.605,7.677 7.072,8.248 7.11,9.175 l 0.003,0.217 a 0.25,0.25 0 0 0 0.25,0.246 h 0.811 a 0.25,0.25 0 0 0 0.25,-0.25 V 9.283 C 8.424,8.565 8.697,8.356 9.434,7.797 10.043,7.334 10.678,6.82 10.678,5.741 10.678,4.23 9.402,3.5 8.005,3.5 6.738,3.5 5.35,4.09 5.255,5.786 m 1.557,5.763 c 0,0.533 0.425,0.927 1.01,0.927 0.609,0 1.028,-0.394 1.028,-0.927 0,-0.552 -0.42,-0.94 -1.029,-0.94 -0.584,0 -1.009,0.388 -1.009,0.94"
       id="path2"
       style="fill:#6b6b6b;fill-opacity:1" />
  </g>
</svg>
