<?xml version="1.0" encoding="UTF-8" standalone="no"?>
<svg
   width="32"
   height="32"
   fill="currentColor"
   class="bi bi-box-arrow-in-down"
   viewBox="0 0 32 32"
   version="1.1"
   id="svg2"
   sodipodi:docname="box-arrow-in-down.svg"
   inkscape:version="1.4.2 (ebf0e940d0, 2025-05-08)"
   xmlns:inkscape="http://www.inkscape.org/namespaces/inkscape"
   xmlns:sodipodi="http://sodipodi.sourceforge.net/DTD/sodipodi-0.dtd"
   xmlns="http://www.w3.org/2000/svg"
   xmlns:svg="http://www.w3.org/2000/svg">
  <defs
     id="defs2" />
  <sodipodi:namedview
     id="namedview2"
     pagecolor="#ffffff"
     bordercolor="#999999"
     borderopacity="1"
     inkscape:showpageshadow="2"
     inkscape:pageopacity="0"
     inkscape:pagecheckerboard="0"
     inkscape:deskcolor="#d1d1d1"
     inkscape:zoom="54.8125"
     inkscape:cx="8"
     inkscape:cy="8"
     inkscape:window-width="2048"
     inkscape:window-height="1086"
     inkscape:window-x="0"
     inkscape:window-y="0"
     inkscape:window-maximized="1"
     inkscape:current-layer="svg2" />
  <g
     id="g2"
     style="fill:#6b6b6b;fill-opacity:1"
     transform="matrix(1.6,0,0,1.6,3.2,2.4)">
    <path
       fill-rule="evenodd"
       d="M 3.5,6 A 0.5,0.5 0 0 0 3,6.5 v 8 A 0.5,0.5 0 0 0 3.5,15 h 9 A 0.5,0.5 0 0 0 13,14.5 v -8 A 0.5,0.5 0 0 0 12.5,6 h -2 a 0.5,0.5 0 0 1 0,-1 h 2 A 1.5,1.5 0 0 1 14,6.5 v 8 A 1.5,1.5 0 0 1 12.5,16 h -9 A 1.5,1.5 0 0 1 2,14.5 v -8 A 1.5,1.5 0 0 1 3.5,5 h 2 a 0.5,0.5 0 0 1 0,1 z"
       id="path1"
       style="fill:#6b6b6b;fill-opacity:1" />
    <path
       fill-rule="evenodd"
       d="m 7.646,11.854 a 0.5,0.5 0 0 0 0.708,0 l 3,-3 A 0.5006316,0.5006316 0 0 0 10.646,8.146 L 8.5,10.293 V 1.5 a 0.5,0.5 0 0 0 -1,0 v 8.793 L 5.354,8.146 A 0.5006316,0.5006316 0 1 0 4.646,8.854 Z"
       id="path2"
       style="fill:#6b6b6b;fill-opacity:1" />
  </g>
</svg>
