<?xml version="1.0" encoding="UTF-8" standalone="no"?>
<svg
   width="32"
   height="32"
   fill="currentColor"
   class="bi bi-info-circle"
   viewBox="0 0 32 32"
   version="1.1"
   id="svg2"
   sodipodi:docname="info.svg"
   inkscape:version="1.4.2 (ebf0e940d0, 2025-05-08)"
   xmlns:inkscape="http://www.inkscape.org/namespaces/inkscape"
   xmlns:sodipodi="http://sodipodi.sourceforge.net/DTD/sodipodi-0.dtd"
   xmlns="http://www.w3.org/2000/svg"
   xmlns:svg="http://www.w3.org/2000/svg">
  <defs
     id="defs2" />
  <sodipodi:namedview
     id="namedview2"
     pagecolor="#ffffff"
     bordercolor="#999999"
     borderopacity="1"
     inkscape:showpageshadow="2"
     inkscape:pageopacity="0"
     inkscape:pagecheckerboard="0"
     inkscape:deskcolor="#d1d1d1"
     inkscape:zoom="13.703125"
     inkscape:cx="23.023945"
     inkscape:cy="16.383124"
     inkscape:window-width="2048"
     inkscape:window-height="1086"
     inkscape:window-x="0"
     inkscape:window-y="0"
     inkscape:window-maximized="1"
     inkscape:current-layer="svg2" />
  <g
     id="g2"
     style="fill:#6b6b6b;fill-opacity:1"
     transform="matrix(1.5,0,0,1.5,4,4)">
    <path
       d="M 8,15 A 7,7 0 1 1 8,1 7,7 0 0 1 8,15 m 0,1 A 8,8 0 1 0 8,0 8,8 0 0 0 8,16"
       id="path1"
       style="fill:#6b6b6b;fill-opacity:1" />
    <path
       d="m 8.93,6.588 -2.29,0.287 -0.082,0.38 0.45,0.083 c 0.294,0.07 0.352,0.176 0.288,0.469 l -0.738,3.468 c -0.194,0.897 0.105,1.319 0.808,1.319 0.545,0 1.178,-0.252 1.465,-0.598 L 8.919,11.58 c -0.2,0.176 -0.492,0.246 -0.686,0.246 -0.275,0 -0.375,-0.193 -0.304,-0.533 z M 9,4.5 a 1,1 0 1 1 -2,0 1,1 0 0 1 2,0"
       id="path2"
       style="fill:#6b6b6b;fill-opacity:1" />
  </g>
</svg>
