<?xml version="1.0" encoding="UTF-8" standalone="no"?>
<svg
   width="32"
   height="32"
   fill="currentColor"
   class="bi bi-keyboard"
   viewBox="0 0 32 32"
   version="1.1"
   id="svg2"
   sodipodi:docname="keyboard.svg"
   inkscape:version="1.4.2 (ebf0e940d0, 2025-05-08)"
   xmlns:inkscape="http://www.inkscape.org/namespaces/inkscape"
   xmlns:sodipodi="http://sodipodi.sourceforge.net/DTD/sodipodi-0.dtd"
   xmlns="http://www.w3.org/2000/svg"
   xmlns:svg="http://www.w3.org/2000/svg">
  <defs
     id="defs2" />
  <sodipodi:namedview
     id="namedview2"
     pagecolor="#ffffff"
     bordercolor="#999999"
     borderopacity="1"
     inkscape:showpageshadow="2"
     inkscape:pageopacity="0"
     inkscape:pagecheckerboard="0"
     inkscape:deskcolor="#d1d1d1"
     inkscape:zoom="13.547124"
     inkscape:cx="-0.99652146"
     inkscape:cy="15.316904"
     inkscape:window-width="2048"
     inkscape:window-height="1086"
     inkscape:window-x="0"
     inkscape:window-y="0"
     inkscape:window-maximized="1"
     inkscape:current-layer="svg2" />
  <g
     id="g2"
     style="fill:#6B6B6E;fill-opacity:1"
     transform="matrix(1.5,0,0,1.5,4,3.25)">
    <path
       d="m 14,5 a 1,1 0 0 1 1,1 v 5 a 1,1 0 0 1 -1,1 H 2 A 1,1 0 0 1 1,11 V 6 A 1,1 0 0 1 2,5 Z M 2,4 A 2,2 0 0 0 0,6 v 5 a 2,2 0 0 0 2,2 h 12 a 2,2 0 0 0 2,-2 V 6 A 2,2 0 0 0 14,4 Z"
       id="path1"
       style="fill:#6B6B6E;fill-opacity:1" />
    <path
       d="M 13,10.25 A 0.25,0.25 0 0 1 13.25,10 h 0.5 A 0.25,0.25 0 0 1 14,10.25 v 0.5 A 0.25,0.25 0 0 1 13.75,11 h -0.5 A 0.25,0.25 0 0 1 13,10.75 Z m 0,-2 A 0.25,0.25 0 0 1 13.25,8 h 0.5 A 0.25,0.25 0 0 1 14,8.25 v 0.5 A 0.25,0.25 0 0 1 13.75,9 h -0.5 A 0.25,0.25 0 0 1 13,8.75 Z m -5,0 A 0.25,0.25 0 0 1 8.25,8 h 0.5 A 0.25,0.25 0 0 1 9,8.25 v 0.5 A 0.25,0.25 0 0 1 8.75,9 H 8.25 A 0.25,0.25 0 0 1 8,8.75 Z m 2,0 A 0.25,0.25 0 0 1 10.25,8 h 1.5 A 0.25,0.25 0 0 1 12,8.25 v 0.5 A 0.25,0.25 0 0 1 11.75,9 h -1.5 A 0.25,0.25 0 0 1 10,8.75 Z m 1,2 A 0.25,0.25 0 0 1 11.25,10 h 0.5 A 0.25,0.25 0 0 1 12,10.25 v 0.5 A 0.25,0.25 0 0 1 11.75,11 h -0.5 A 0.25,0.25 0 0 1 11,10.75 Z m -5,-2 A 0.25,0.25 0 0 1 6.25,8 h 0.5 A 0.25,0.25 0 0 1 7,8.25 v 0.5 A 0.25,0.25 0 0 1 6.75,9 H 6.25 A 0.25,0.25 0 0 1 6,8.75 Z m -2,0 A 0.25,0.25 0 0 1 4.25,8 h 0.5 A 0.25,0.25 0 0 1 5,8.25 v 0.5 A 0.25,0.25 0 0 1 4.75,9 H 4.25 A 0.25,0.25 0 0 1 4,8.75 Z m -2,0 A 0.25,0.25 0 0 1 2.25,8 h 0.5 A 0.25,0.25 0 0 1 3,8.25 v 0.5 A 0.25,0.25 0 0 1 2.75,9 H 2.25 A 0.25,0.25 0 0 1 2,8.75 Z m 11,-2 A 0.25,0.25 0 0 1 13.25,6 h 0.5 A 0.25,0.25 0 0 1 14,6.25 v 0.5 A 0.25,0.25 0 0 1 13.75,7 h -0.5 A 0.25,0.25 0 0 1 13,6.75 Z m -2,0 A 0.25,0.25 0 0 1 11.25,6 h 0.5 A 0.25,0.25 0 0 1 12,6.25 v 0.5 A 0.25,0.25 0 0 1 11.75,7 h -0.5 A 0.25,0.25 0 0 1 11,6.75 Z m -2,0 A 0.25,0.25 0 0 1 9.25,6 h 0.5 A 0.25,0.25 0 0 1 10,6.25 v 0.5 A 0.25,0.25 0 0 1 9.75,7 H 9.25 A 0.25,0.25 0 0 1 9,6.75 Z m -2,0 A 0.25,0.25 0 0 1 7.25,6 h 0.5 A 0.25,0.25 0 0 1 8,6.25 v 0.5 A 0.25,0.25 0 0 1 7.75,7 H 7.25 A 0.25,0.25 0 0 1 7,6.75 Z m -2,0 A 0.25,0.25 0 0 1 5.25,6 h 0.5 A 0.25,0.25 0 0 1 6,6.25 v 0.5 A 0.25,0.25 0 0 1 5.75,7 H 5.25 A 0.25,0.25 0 0 1 5,6.75 Z m -3,0 A 0.25,0.25 0 0 1 2.25,6 h 1.5 A 0.25,0.25 0 0 1 4,6.25 v 0.5 A 0.25,0.25 0 0 1 3.75,7 H 2.25 A 0.25,0.25 0 0 1 2,6.75 Z m 0,4 A 0.25,0.25 0 0 1 2.25,10 h 0.5 A 0.25,0.25 0 0 1 3,10.25 v 0.5 A 0.25,0.25 0 0 1 2.75,11 H 2.25 A 0.25,0.25 0 0 1 2,10.75 Z m 2,0 A 0.25,0.25 0 0 1 4.25,10 h 5.5 A 0.25,0.25 0 0 1 10,10.25 v 0.5 A 0.25,0.25 0 0 1 9.75,11 H 4.25 A 0.25,0.25 0 0 1 4,10.75 Z"
       id="path2"
       style="fill:#6B6B6E;fill-opacity:1" />
  </g>
</svg>
