<?xml version="1.0" encoding="UTF-8" standalone="no"?>
<svg
   width="32"
   height="32"
   fill="currentColor"
   class="bi bi-upload"
   viewBox="0 0 32 32"
   version="1.1"
   id="svg2"
   sodipodi:docname="open.svg"
   inkscape:version="1.4.2 (ebf0e940d0, 2025-05-08)"
   xmlns:inkscape="http://www.inkscape.org/namespaces/inkscape"
   xmlns:sodipodi="http://sodipodi.sourceforge.net/DTD/sodipodi-0.dtd"
   xmlns="http://www.w3.org/2000/svg"
   xmlns:svg="http://www.w3.org/2000/svg">
  <defs
     id="defs2" />
  <sodipodi:namedview
     id="namedview2"
     pagecolor="#ffffff"
     bordercolor="#999999"
     borderopacity="1"
     inkscape:showpageshadow="2"
     inkscape:pageopacity="0"
     inkscape:pagecheckerboard="0"
     inkscape:deskcolor="#d1d1d1"
     inkscape:zoom="54.8125"
     inkscape:cx="8"
     inkscape:cy="8"
     inkscape:window-width="2048"
     inkscape:window-height="1086"
     inkscape:window-x="0"
     inkscape:window-y="0"
     inkscape:window-maximized="1"
     inkscape:current-layer="svg2" />
  <g
     id="g2"
     transform="matrix(1.5,0,0,1.5,4,4.0756703)"
     style="fill:#6B6B6E;fill-opacity:1">
    <path
       d="M 0.5,9.9 A 0.5,0.5 0 0 1 1,10.4 v 2.5 a 1,1 0 0 0 1,1 h 12 a 1,1 0 0 0 1,-1 v -2.5 a 0.5,0.5 0 0 1 1,0 v 2.5 a 2,2 0 0 1 -2,2 H 2 a 2,2 0 0 1 -2,-2 V 10.4 A 0.5,0.5 0 0 1 0.5,9.9"
       id="path1"
       style="fill:#6B6B6E;fill-opacity:1" />
    <path
       d="m 7.646,1.146 a 0.5,0.5 0 0 1 0.708,0 l 3,3 A 0.5006316,0.5006316 0 0 1 10.646,4.854 L 8.5,2.707 V 11.5 a 0.5,0.5 0 0 1 -1,0 V 2.707 L 5.354,4.854 A 0.5006316,0.5006316 0 1 1 4.646,4.146 Z"
       id="path2"
       style="fill:#6B6B6E;fill-opacity:1" />
  </g>
</svg>
