<?xml version="1.0" encoding="UTF-8" standalone="no"?>
<!-- Uploaded to: SVG Repo, www.svgrepo.com, Generator: SVG Repo Mixer Tools -->

<svg
   fill="#000000"
   height="800px"
   width="800px"
   version="1.1"
   id="Layer_1"
   viewBox="0 0 512.018 512.018"
   xml:space="preserve"
   sodipodi:docname="warning_dark.svg"
   inkscape:version="1.4.2 (ebf0e940d0, 2025-05-08)"
   xmlns:inkscape="http://www.inkscape.org/namespaces/inkscape"
   xmlns:sodipodi="http://sodipodi.sourceforge.net/DTD/sodipodi-0.dtd"
   xmlns="http://www.w3.org/2000/svg"
   xmlns:svg="http://www.w3.org/2000/svg"><defs
   id="defs2" /><sodipodi:namedview
   id="namedview2"
   pagecolor="#ffffff"
   bordercolor="#999999"
   borderopacity="1"
   inkscape:showpageshadow="2"
   inkscape:pageopacity="0"
   inkscape:pagecheckerboard="0"
   inkscape:deskcolor="#d1d1d1"
   inkscape:zoom="1.45625"
   inkscape:cx="400"
   inkscape:cy="400"
   inkscape:window-width="2560"
   inkscape:window-height="1374"
   inkscape:window-x="0"
   inkscape:window-y="0"
   inkscape:window-maximized="1"
   inkscape:current-layer="Layer_1" />
<g
   id="g2"
   style="fill:#6b6b6c;fill-opacity:1">
	<g
   id="g1"
   style="fill:#6b6b6c;fill-opacity:1">
		<path
   d="M509.769,480.665L275.102,11.331c-7.253-14.464-30.933-14.464-38.187,0L2.249,480.665    c-3.307,6.613-2.944,14.464,0.939,20.757c3.904,6.272,10.752,10.112,18.155,10.112h469.333c7.403,0,14.251-3.84,18.155-10.112    C512.713,495.129,513.075,487.278,509.769,480.665z M256.009,426.201c-11.776,0-21.333-9.557-21.333-21.333    s9.557-21.333,21.333-21.333s21.333,9.557,21.333,21.333S267.785,426.201,256.009,426.201z M277.342,340.867    c0,11.776-9.536,21.333-21.333,21.333c-11.797,0-21.333-9.557-21.333-21.333V191.534c0-11.776,9.536-21.333,21.333-21.333    c11.797,0,21.333,9.557,21.333,21.333V340.867z"
   id="path1"
   style="fill:#6b6b6c;fill-opacity:1" />
	</g>
</g>
</svg>
