<?xml version="1.0" encoding="UTF-8" standalone="no"?>
<!-- Uploaded to: SVG Repo, www.svgrepo.com, Generator: SVG Repo Mixer Tools -->

<svg
   fill="#000000"
   version="1.1"
   id="Capa_1"
   width="800px"
   height="800px"
   viewBox="0 0 583.312 583.312"
   xml:space="preserve"
   sodipodi:docname="sound_system_dark.svg"
   inkscape:version="1.4.2 (ebf0e940d0, 2025-05-08)"
   xmlns:inkscape="http://www.inkscape.org/namespaces/inkscape"
   xmlns:sodipodi="http://sodipodi.sourceforge.net/DTD/sodipodi-0.dtd"
   xmlns="http://www.w3.org/2000/svg"
   xmlns:svg="http://www.w3.org/2000/svg"><defs
   id="defs7" /><sodipodi:namedview
   id="namedview7"
   pagecolor="#ffffff"
   bordercolor="#999999"
   borderopacity="1"
   inkscape:showpageshadow="2"
   inkscape:pageopacity="0"
   inkscape:pagecheckerboard="0"
   inkscape:deskcolor="#d1d1d1"
   inkscape:zoom="1.45625"
   inkscape:cx="400.6867"
   inkscape:cy="400"
   inkscape:window-width="2560"
   inkscape:window-height="1374"
   inkscape:window-x="0"
   inkscape:window-y="0"
   inkscape:window-maximized="1"
   inkscape:current-layer="Capa_1" />
<g
   id="g7"
   style="fill:#6b6b6c;fill-opacity:1">
	<path
   d="M86.062,297.604c-28.362,0-51.427,23.074-51.427,51.427s23.065,51.427,51.427,51.427s51.427-23.074,51.427-51.427   S114.425,297.604,86.062,297.604z M86.062,372.938c-13.206,0-23.906-10.7-23.906-23.906s10.7-23.906,23.906-23.906   s23.906,10.7,23.906,23.906S99.269,372.938,86.062,372.938z"
   id="path1"
   style="fill:#6b6b6c;fill-opacity:1" />
	<path
   d="M172.125,420.75V162.562c0-10.566-8.559-19.125-19.125-19.125H19.125C8.559,143.438,0,151.996,0,162.562V420.75   c0,10.566,8.559,19.125,19.125,19.125H153C163.566,439.875,172.125,431.316,172.125,420.75z M86.062,191.25   c13.206,0,23.906,10.7,23.906,23.906s-10.7,23.906-23.906,23.906s-23.906-10.7-23.906-23.906S72.856,191.25,86.062,191.25z    M86.062,410.757c-34.033,0-61.726-27.692-61.726-61.726s27.693-61.726,61.726-61.726s61.726,27.692,61.726,61.726   S120.095,410.757,86.062,410.757z"
   id="path2"
   style="fill:#6b6b6c;fill-opacity:1" />
	<path
   d="M392.062,392.062v-28.688H191.25v28.688c0,10.566,8.559,19.125,19.125,19.125h162.562   C383.504,411.188,392.062,402.629,392.062,392.062z"
   id="path3"
   style="fill:#6b6b6c;fill-opacity:1" />
	<path
   d="M392.062,286.875c0-10.566-8.559-19.125-19.125-19.125H210.375c-10.566,0-19.125,8.559-19.125,19.125v66.938h200.812   V286.875z M306,334.688h-95.625v-47.812H306V334.688z M344.25,334.688c-13.206,0-23.906-10.7-23.906-23.906   s10.7-23.906,23.906-23.906s23.906,10.7,23.906,23.906S357.456,334.688,344.25,334.688z"
   id="path4"
   style="fill:#6b6b6c;fill-opacity:1" />
	<path
   d="M497.25,297.604c-28.362,0-51.427,23.074-51.427,51.427s23.074,51.427,51.427,51.427s51.427-23.074,51.427-51.427   S525.612,297.604,497.25,297.604z M497.25,372.938c-13.206,0-23.906-10.7-23.906-23.906s10.7-23.906,23.906-23.906   s23.906,10.7,23.906,23.906S510.456,372.938,497.25,372.938z"
   id="path5"
   style="fill:#6b6b6c;fill-opacity:1" />
	<path
   d="M564.188,143.438H430.312c-10.566,0-19.125,8.559-19.125,19.125V420.75c0,10.566,8.559,19.125,19.125,19.125h133.875   c10.566,0,19.125-8.559,19.125-19.125V162.562C583.312,151.996,574.754,143.438,564.188,143.438z M497.25,191.25   c13.206,0,23.906,10.7,23.906,23.906s-10.7,23.906-23.906,23.906s-23.906-10.7-23.906-23.906S484.044,191.25,497.25,191.25z    M497.25,410.757c-34.033,0-61.726-27.692-61.726-61.726s27.692-61.726,61.726-61.726s61.726,27.692,61.726,61.726   S531.283,410.757,497.25,410.757z"
   id="path6"
   style="fill:#6b6b6c;fill-opacity:1" />
	<rect
   x="210.375"
   y="420.75"
   width="38.25"
   height="19.125"
   id="rect6"
   style="fill:#6b6b6c;fill-opacity:1" />
	<rect
   x="334.688"
   y="420.75"
   width="38.25"
   height="19.125"
   id="rect7"
   style="fill:#6b6b6c;fill-opacity:1" />
</g>
<path
   d="m 369.63762,135.86659 c 0,69.41051 -83.91413,104.15868 -132.98874,55.08408 -49.0746,-49.07461 -14.32643,-132.988737 55.08408,-132.988737 43.0256,0 77.90466,34.87906 77.90466,77.904657 z m -38.95233,-6.49206 c 0,-3.58552 -2.90653,-6.49205 -6.49206,-6.49205 h -19.47616 v -19.47616 c 0,-3.585527 -2.90653,-6.492057 -6.49205,-6.492057 h -12.98411 c -3.58553,0 -6.49206,2.90653 -6.49206,6.492057 v 19.47616 h -19.47616 c -3.58553,0 -6.49206,2.90653 -6.49206,6.49205 v 12.98411 c 0,3.58553 2.90653,6.49206 6.49206,6.49206 h 19.47616 v 19.47616 c 0,3.58553 2.90653,6.49206 6.49206,6.49206 h 12.98411 c 3.58552,0 6.49205,-2.90653 6.49205,-6.49206 V 148.8507 h 19.47616 c 3.58553,0 6.49206,-2.90653 6.49206,-6.49206 z"
   id="path1-3"
   style="stroke-width:12.9841;fill:#6b6b6c;fill-opacity:1" /></svg>
