<?xml version="1.0" encoding="UTF-8" standalone="no"?>
<svg
   width="32"
   height="32"
   fill="currentColor"
   class="bi bi-buildings"
   viewBox="0 0 32 32"
   version="1.1"
   id="svg2"
   sodipodi:docname="buildings.svg"
   inkscape:version="1.4.3 (0d15f75042, 2025-12-25)"
   xmlns:inkscape="http://www.inkscape.org/namespaces/inkscape"
   xmlns:sodipodi="http://sodipodi.sourceforge.net/DTD/sodipodi-0.dtd"
   xmlns="http://www.w3.org/2000/svg"
   xmlns:svg="http://www.w3.org/2000/svg">
  <defs
     id="defs2" />
  <sodipodi:namedview
     id="namedview2"
     pagecolor="#ffffff"
     bordercolor="#999999"
     borderopacity="1"
     inkscape:showpageshadow="2"
     inkscape:pageopacity="0"
     inkscape:pagecheckerboard="0"
     inkscape:deskcolor="#d1d1d1"
     inkscape:zoom="13.703125"
     inkscape:cx="7.9179019"
     inkscape:cy="18.49943"
     inkscape:window-width="2048"
     inkscape:window-height="1086"
     inkscape:window-x="0"
     inkscape:window-y="0"
     inkscape:window-maximized="1"
     inkscape:current-layer="svg2" />
  <g
     id="g2"
     transform="matrix(1.500011,0,0,1.500011,4.7499175,3.9998238)"
     style="fill:#CCCCCF;fill-opacity:1">
    <path
       d="M 14.763,0.075 A 0.5,0.5 0 0 1 15,0.5 v 15 A 0.5,0.5 0 0 1 14.5,16 h -3 A 0.5,0.5 0 0 1 11,15.5 V 14 h -1 v 1.5 A 0.5,0.5 0 0 1 9.5,16 h -9 A 0.5,0.5 0 0 1 0,15.5 V 10 A 0.5,0.5 0 0 1 0.342,9.526 L 6,7.64 V 4.5 A 0.5,0.5 0 0 1 6.276,4.053 l 8,-4 a 0.5,0.5 0 0 1 0.487,0.022 M 6,8.694 1,10.36 V 15 H 6 Z M 7,15 H 9 V 13.5 A 0.5,0.5 0 0 1 9.5,13 h 2 A 0.5,0.5 0 0 1 12,13.5 V 15 h 2 V 1.309 l -7,3.5 z"
       id="path1"
       style="fill:#CCCCCF;fill-opacity:1" />
    <path
       d="m 2,11 h 1 v 1 H 2 Z m 2,0 h 1 v 1 H 4 Z m -2,2 h 1 v 1 H 2 Z m 2,0 h 1 v 1 H 4 Z M 8,9 h 1 v 1 H 8 Z m 2,0 h 1 v 1 h -1 z m -2,2 h 1 v 1 H 8 Z m 2,0 h 1 v 1 h -1 z m 2,-2 h 1 v 1 h -1 z m 0,2 h 1 v 1 H 12 Z M 8,7 H 9 V 8 H 8 Z m 2,0 h 1 v 1 h -1 z m 2,0 h 1 V 8 H 12 Z M 8,5 H 9 V 6 H 8 Z m 2,0 h 1 v 1 h -1 z m 2,0 h 1 v 1 h -1 z m 0,-2 h 1 v 1 h -1 z"
       id="path2"
       style="fill:#CCCCCF;fill-opacity:1" />
  </g>
</svg>
