<?xml version="1.0" encoding="UTF-8" standalone="no"?>
<svg
   width="32"
   height="32"
   fill="currentColor"
   class="bi bi-copy"
   viewBox="0 0 32 32"
   version="1.1"
   id="svg1"
   sodipodi:docname="copy.svg"
   inkscape:version="1.4.2 (ebf0e940d0, 2025-05-08)"
   xmlns:inkscape="http://www.inkscape.org/namespaces/inkscape"
   xmlns:sodipodi="http://sodipodi.sourceforge.net/DTD/sodipodi-0.dtd"
   xmlns="http://www.w3.org/2000/svg"
   xmlns:svg="http://www.w3.org/2000/svg">
  <defs
     id="defs1" />
  <sodipodi:namedview
     id="namedview1"
     pagecolor="#ffffff"
     bordercolor="#999999"
     borderopacity="1"
     inkscape:showpageshadow="2"
     inkscape:pageopacity="0"
     inkscape:pagecheckerboard="0"
     inkscape:deskcolor="#d1d1d1"
     inkscape:zoom="6.3638142"
     inkscape:cx="9.5068771"
     inkscape:cy="4.1641693"
     inkscape:window-width="2048"
     inkscape:window-height="1086"
     inkscape:window-x="0"
     inkscape:window-y="0"
     inkscape:window-maximized="1"
     inkscape:current-layer="svg1" />
  <path
     fill-rule="evenodd"
     d="m 10,7 a 3,3 0 0 1 3,-3 h 12 a 3,3 0 0 1 3,3 v 12 a 3,3 0 0 1 -3,3 H 13 A 3,3 0 0 1 10,19 Z M 13,5.5 A 1.5,1.5 0 0 0 11.5,7 V 19 A 1.5,1.5 0 0 0 13,20.5 H 25 A 1.5,1.5 0 0 0 26.5,19 V 7 A 1.5,1.5 0 0 0 25,5.5 Z m -6,6 A 1.5,1.5 0 0 0 5.5,13 V 25 A 1.5,1.5 0 0 0 7,26.5 H 19 A 1.5,1.5 0 0 0 20.5,25 V 23.5 H 22 V 25 a 3,3 0 0 1 -3,3 H 7 A 3,3 0 0 1 4,25 V 13 a 3,3 0 0 1 3,-3 h 1.5 v 1.5 z"
     id="path1"
     style="stroke-width:1.5;fill:#CCCCCC;fill-opacity:1" />
</svg>
