<?xml version="1.0" encoding="UTF-8" standalone="no"?>
<svg
   width="32"
   height="32"
   fill="currentColor"
   class="bi bi-mouse2"
   viewBox="0 0 32 32"
   version="1.1"
   id="svg1"
   sodipodi:docname="mouse2.svg"
   inkscape:version="1.4.2 (ebf0e940d0, 2025-05-08)"
   xmlns:inkscape="http://www.inkscape.org/namespaces/inkscape"
   xmlns:sodipodi="http://sodipodi.sourceforge.net/DTD/sodipodi-0.dtd"
   xmlns="http://www.w3.org/2000/svg"
   xmlns:svg="http://www.w3.org/2000/svg">
  <defs
     id="defs1" />
  <sodipodi:namedview
     id="namedview1"
     pagecolor="#ffffff"
     bordercolor="#999999"
     borderopacity="1"
     inkscape:showpageshadow="2"
     inkscape:pageopacity="0"
     inkscape:pagecheckerboard="0"
     inkscape:deskcolor="#d1d1d1"
     inkscape:zoom="13.538084"
     inkscape:cx="-1.9943737"
     inkscape:cy="15.1794"
     inkscape:window-width="2048"
     inkscape:window-height="1086"
     inkscape:window-x="0"
     inkscape:window-y="0"
     inkscape:window-maximized="1"
     inkscape:current-layer="svg1" />
  <path
     d="M 8.5,11.782 C 8.5,7.5115 11.83,4 16,4 c 4.17,0 7.5,3.513 7.5,7.782 v 8.4375 C 23.5,24.487 20.17,28 16,28 11.83,28 8.5,24.487 8.5,20.218 V 11.7835 Z M 15.25,5.5495 C 12.3115,5.9335 10,8.5525 10,11.782 v 0.468 h 5.25 z m 1.5,0 V 12.25 H 22 v -0.4695 c 0,-3.228 -2.3115,-5.847 -5.25,-6.231 M 22,13.75 H 10 v 6.4695 c 0,3.498 2.715,6.2805 6,6.2805 3.285,0 6,-2.7825 6,-6.282 z"
     id="path1"
     style="stroke-width:1.5;fill:#CCCCCC;fill-opacity:1" />
</svg>
