<?xml version="1.0" encoding="UTF-8" standalone="no"?>
<svg
   width="32"
   height="32"
   fill="currentColor"
   class="bi bi-file-earmark"
   viewBox="0 0 32 32"
   version="1.1"
   id="svg1"
   sodipodi:docname="file-earmark.svg"
   inkscape:version="1.4.2 (ebf0e940d0, 2025-05-08)"
   xmlns:inkscape="http://www.inkscape.org/namespaces/inkscape"
   xmlns:sodipodi="http://sodipodi.sourceforge.net/DTD/sodipodi-0.dtd"
   xmlns="http://www.w3.org/2000/svg"
   xmlns:svg="http://www.w3.org/2000/svg">
  <defs
     id="defs1" />
  <sodipodi:namedview
     id="namedview1"
     pagecolor="#ffffff"
     bordercolor="#999999"
     borderopacity="1"
     inkscape:showpageshadow="2"
     inkscape:pageopacity="0"
     inkscape:pagecheckerboard="0"
     inkscape:deskcolor="#d1d1d1"
     inkscape:zoom="27.40625"
     inkscape:cx="9.322691"
     inkscape:cy="18.152794"
     inkscape:window-width="2048"
     inkscape:window-height="1086"
     inkscape:window-x="0"
     inkscape:window-y="0"
     inkscape:window-maximized="1"
     inkscape:current-layer="svg1" />
  <path
     d="M 25,10.75 V 25 a 3,3 0 0 1 -3,3 H 10 A 3,3 0 0 1 7,25 V 7 a 3,3 0 0 1 3,-3 h 8.25 z m -4.5,0 A 2.25,2.25 0 0 1 18.25,8.5 v -3 H 10 A 1.5,1.5 0 0 0 8.5,7 V 25 A 1.5,1.5 0 0 0 10,26.5 H 22 A 1.5,1.5 0 0 0 23.5,25 V 10.75 Z"
     id="path1"
     style="stroke-width:1.5;fill:#CCCCCC;fill-opacity:1" />
</svg>
