<?xml version="1.0" encoding="UTF-8" standalone="no"?>
<svg
   width="32"
   height="32"
   fill="currentColor"
   class="bi bi-printer"
   viewBox="0 0 32 32"
   version="1.1"
   id="svg2"
   sodipodi:docname="printer.svg"
   inkscape:version="1.4.2 (ebf0e940d0, 2025-05-08)"
   xmlns:inkscape="http://www.inkscape.org/namespaces/inkscape"
   xmlns:sodipodi="http://sodipodi.sourceforge.net/DTD/sodipodi-0.dtd"
   xmlns="http://www.w3.org/2000/svg"
   xmlns:svg="http://www.w3.org/2000/svg">
  <defs
     id="defs2" />
  <sodipodi:namedview
     id="namedview2"
     pagecolor="#ffffff"
     bordercolor="#999999"
     borderopacity="1"
     inkscape:showpageshadow="2"
     inkscape:pageopacity="0"
     inkscape:pagecheckerboard="0"
     inkscape:deskcolor="#d1d1d1"
     inkscape:zoom="19.379145"
     inkscape:cx="10.500979"
     inkscape:cy="11.997433"
     inkscape:window-width="2048"
     inkscape:window-height="1086"
     inkscape:window-x="0"
     inkscape:window-y="0"
     inkscape:window-maximized="1"
     inkscape:current-layer="svg2" />
  <g
     id="g2"
     transform="matrix(1.5,0,0,1.5,4,4)">
    <path
       d="m 2.5,8 a 0.5,0.5 0 1 0 0,-1 0.5,0.5 0 0 0 0,1"
       id="path1"
       style="fill:#CCCCCC;fill-opacity:1" />
    <path
       d="M 5,1 A 2,2 0 0 0 3,3 V 5 H 2 A 2,2 0 0 0 0,7 v 3 a 2,2 0 0 0 2,2 h 1 v 1 a 2,2 0 0 0 2,2 h 6 a 2,2 0 0 0 2,-2 v -1 h 1 a 2,2 0 0 0 2,-2 V 7 A 2,2 0 0 0 14,5 H 13 V 3 A 2,2 0 0 0 11,1 Z M 4,3 A 1,1 0 0 1 5,2 h 6 a 1,1 0 0 1 1,1 V 5 H 4 Z m 1,5 a 2,2 0 0 0 -2,2 v 1 H 2 A 1,1 0 0 1 1,10 V 7 A 1,1 0 0 1 2,6 h 12 a 1,1 0 0 1 1,1 v 3 a 1,1 0 0 1 -1,1 H 13 V 10 A 2,2 0 0 0 11,8 Z m 7,2 v 3 a 1,1 0 0 1 -1,1 H 5 A 1,1 0 0 1 4,13 V 10 A 1,1 0 0 1 5,9 h 6 a 1,1 0 0 1 1,1"
       id="path2"
       style="fill:#CCCCCC;fill-opacity:1" />
  </g>
</svg>
