<?xml version="1.0" encoding="UTF-8" standalone="no"?>
<svg
   width="32"
   height="32"
   fill="currentColor"
   class="bi bi-folder-plus"
   viewBox="0 0 32 32"
   version="1.1"
   id="svg2"
   sodipodi:docname="projects.svg"
   inkscape:version="1.4.2 (ebf0e940d0, 2025-05-08)"
   xmlns:inkscape="http://www.inkscape.org/namespaces/inkscape"
   xmlns:sodipodi="http://sodipodi.sourceforge.net/DTD/sodipodi-0.dtd"
   xmlns="http://www.w3.org/2000/svg"
   xmlns:svg="http://www.w3.org/2000/svg">
  <defs
     id="defs2" />
  <sodipodi:namedview
     id="namedview2"
     pagecolor="#ffffff"
     bordercolor="#999999"
     borderopacity="1"
     inkscape:showpageshadow="2"
     inkscape:pageopacity="0"
     inkscape:pagecheckerboard="0"
     inkscape:deskcolor="#d1d1d1"
     inkscape:zoom="27.40625"
     inkscape:cx="16.474344"
     inkscape:cy="13.263398"
     inkscape:window-width="2048"
     inkscape:window-height="1086"
     inkscape:window-x="0"
     inkscape:window-y="0"
     inkscape:window-maximized="1"
     inkscape:current-layer="svg2" />
  <g
     id="g1"
     transform="matrix(1.5365538,0,0,1.5365538,3.7083029,4.4758465)">
    <path
       d="M 0.5,3 0.54,3.87 A 2,2 0 0 0 0.198,5.181 l 0.637,7 A 2,2 0 0 0 2.826,14 H 9 V 13 H 2.826 A 1,1 0 0 1 1.831,12.09 l -0.637,-7 A 1,1 0 0 1 2.19,4 h 11.62 a 1,1 0 0 1 0.996,1.09 L 14.54,8 h 1.005 L 15.801,5.181 A 2,2 0 0 0 13.81,3 H 9.828 A 2,2 0 0 1 8.414,2.414 L 7.586,1.586 A 2,2 0 0 0 6.172,1 H 2.5 a 2,2 0 0 0 -2,2 M 6.172,2 A 1,1 0 0 1 6.879,2.293 L 7.586,3 H 2.19 Q 1.828,3.002 1.507,3.12 L 1.5,2.98 A 1,1 0 0 1 2.5,2 Z"
       id="path1"
       style="fill:#CCCCCC;fill-opacity:1" />
    <g
       id="g3"
       transform="matrix(0.68546693,0,0,0.68546693,4.4994427,3.7575434)"
       style="fill:#CCCCCC;fill-opacity:1">
      <path
         d="M 11.536,14.01 A 8.47,8.47 0 0 0 14.026,8 8.47,8.47 0 0 0 11.536,1.99 L 10.828,2.697 A 7.48,7.48 0 0 1 13.025,8 c 0,2.071 -0.84,3.946 -2.197,5.303 z"
         id="path1-5"
         style="fill:#CCCCCC;fill-opacity:1" />
      <path
         d="M 10.121,12.596 A 6.48,6.48 0 0 0 12.025,8 6.48,6.48 0 0 0 10.121,3.404 L 9.414,4.111 A 5.48,5.48 0 0 1 11.025,8 5.48,5.48 0 0 1 9.415,11.89 Z"
         id="path2"
         style="fill:#CCCCCC;fill-opacity:1" />
      <path
         d="M 10.025,8 A 4.5,4.5 0 0 1 8.707,11.182 L 8,10.475 A 3.5,3.5 0 0 0 9.025,8 C 9.025,7.034 8.633,6.159 8,5.525 L 8.707,4.818 A 4.5,4.5 0 0 1 10.025,8 M 7,4 A 0.5,0.5 0 0 0 6.188,3.61 L 3.825,5.5 H 1.5 A 0.5,0.5 0 0 0 1,6 v 4 a 0.5,0.5 0 0 0 0.5,0.5 h 2.325 l 2.363,1.89 A 0.5,0.5 0 0 0 7,12 Z M 4.312,6.39 6,5.04 v 5.92 L 4.312,9.61 A 0.5,0.5 0 0 0 4,9.5 H 2 v -3 H 4 A 0.5,0.5 0 0 0 4.312,6.39"
         id="path3"
         style="fill:#CCCCCC;fill-opacity:1" />
    </g>
  </g>
</svg>
